Coordinates
version=1
nRows=19
nColumns=34
inDegrees=yes

Units are S.I. units (second, meters, Newtons, ...)
If the header above contains a line with 'inDegrees', this indicates whether rotational values are in degrees (yes) or radians (no).

endheader
time	pelvis_tilt	pelvis_list	pelvis_rotation	pelvis_tx	pelvis_ty	pelvis_tz	hip_flexion_r	hip_adduction_r	hip_rotation_r	knee_angle_r	ankle_angle_r	subtalar_angle_r	mtp_angle_r	hip_flexion_l	hip_adduction_l	hip_rotation_l	knee_angle_l	ankle_angle_l	subtalar_angle_l	mtp_angle_l	lumbar_extension	lumbar_bending	lumbar_rotation	arm_flex_r	arm_add_r	arm_rot_r	elbow_flex_r	pro_sup_r	arm_flex_l	arm_add_l	arm_rot_l	elbow_flex_l	pro_sup_l
      3.58333330	    -35.04885136	     -3.30448618	      7.72918200	     -0.10177797	      1.10472595	     -0.07045715	     67.62633705	     -0.29557208	      4.90640284	     70.64064586	     33.45848723	    -32.46625048	      0.00000000	     69.25816513	      5.17528888	     10.07870682	     69.42173827	     27.79760044	    -30.32771103	      0.00000000	     -6.00728234	     -1.20569758	      6.31319852	     39.77698057	    -46.25176972	     -1.76236266	    103.39547772	     89.70025734	     50.91403437	    -32.06406073	     17.63386226	     94.35103005	     78.60986389
      3.60000000	    -34.20442457	     -3.04261087	      7.44640519	     -0.08539608	      1.12327322	     -0.07380921	     63.44728274	     -0.34404540	      4.94277231	     66.64339358	     30.02436825	    -35.00000000	      0.00000000	     64.87167207	      5.18567338	     10.52088027	     65.18749470	     26.19791762	    -31.03608731	      0.00000000	     -5.19636078	     -1.14762328	      6.67410577	     37.62656375	    -50.00858457	     -3.88728026	    104.22464874	     90.13817785	     50.54367815	    -35.70572809	     18.86121709	     97.50093919	     80.11408641
      3.61666670	    -32.97431346	     -2.96264371	      7.25088444	     -0.06654691	      1.14297527	     -0.07494765	     58.53765006	     -0.24914746	      4.88889304	     61.75467334	     28.57964592	    -34.48092508	      0.00000000	     59.98337198	      4.76890878	     11.02441877	     60.61776526	     24.12760642	    -31.82568183	      0.00000000	     -4.44300518	     -0.40784383	      7.25696689	     34.92115859	    -54.15247208	     -5.50562864	    106.25690016	     90.31100596	     47.85305547	    -39.45846093	     19.09177181	    102.04113867	     80.95698791
      3.63333330	    -31.67161786	     -3.01436688	      7.22626904	     -0.04472744	      1.16597187	     -0.07584398	     53.34128693	     -0.27812799	      4.53813415	     56.17501718	     26.42446804	    -34.23113048	      0.00000000	     54.94361002	      4.17144272	     11.30756255	     55.59439648	     21.71629240	    -31.98816087	      0.00000000	     -3.67402721	      0.15837662	      6.66851075	     32.30349336	    -57.27733281	     -6.55806191	    106.46962073	     90.34121038	     46.96194421	    -44.38942540	     19.61041647	    104.89368334	     81.48379727
      3.65000000	    -29.61079592	     -2.82782518	      7.43562301	     -0.02034764	      1.19254529	     -0.08006036	     46.67884299	     -0.69334286	      4.06272913	     49.43934634	     23.08220717	    -33.85574960	      0.00000000	     48.53137545	      3.56170042	     11.10203652	     49.57997976	     18.24294848	    -32.47409607	      0.00000000	     -2.94943205	      0.80703718	      6.38416679	     28.98102318	    -60.47083286	     -8.50678438	    106.59982186	     90.28877911	     43.96203691	    -48.45538971	     18.53637012	    106.34547538	     81.79522347
      3.66666670	    -28.18725332	     -2.69485764	      7.46940102	      0.00204575	      1.21624416	     -0.08042655	     40.98242844	     -1.00185140	      3.09723454	     43.38482282	     18.94398534	    -33.69449707	      0.00000000	     42.53329582	      2.75933742	     10.66894388	     42.90309508	     15.09560747	    -31.58360437	      0.00000000	     -1.79463163	      0.99409938	      5.90200411	     23.25650535	    -62.73822529	    -12.44550881	    107.65757887	     89.89681278	     39.94310083	    -52.68113403	     16.34138456	    107.44648784	     81.98482999
      3.68333330	    -26.65904290	     -2.76792653	      7.88196792	      0.02617458	      1.24252269	     -0.08377159	     35.16010689	     -1.61104012	      0.99092688	     37.22186204	     15.03375325	    -31.51205750	      0.00000000	     36.61378640	      1.64485089	      9.67261126	     36.22552203	     11.51297164	    -29.29245437	      0.00000000	     -0.43658289	      0.92143826	      4.68217835	     19.83196737	    -63.84950077	    -13.32033184	    105.42559250	     89.71309794	     37.80985404	    -56.97501130	     16.69395668	    107.42651466	     81.91886949
      3.70000000	    -25.67884336	     -2.67746782	      7.99832307	      0.04768233	      1.26834964	     -0.08913090	     30.32493028	     -2.42519283	     -1.33427712	     32.04926366	      9.43109633	    -29.23088282	      0.00000000	     31.25937109	      0.55759496	      7.81471294	     29.54834492	      7.45855831	    -25.77586157	      0.00000000	      0.63913743	      0.92524771	      4.53153467	     12.71525493	    -65.47572393	    -18.48794125	    105.81825771	     88.87124267	     32.14936583	    -60.51455274	     13.00563553	    109.26971504	     80.68857086
      3.71666670	    -24.64356612	     -2.44588507	      8.14101543	      0.07262524	      1.29477438	     -0.09292239	     26.32920254	     -3.38911670	     -3.74951943	     28.19403333	      4.03271452	    -24.73741210	      0.00000000	     26.63813734	     -0.36985989	      5.93761634	     24.19031746	      2.33596036	    -21.55830427	      0.00000000	      1.82216755	      0.67297863	      4.12700350	      7.79683159	    -65.63650074	    -20.96634228	    104.92734635	     88.47558397	     28.46951756	    -63.41419676	     11.64228125	    109.83601550	     79.81463517
      3.73333330	    -24.16134167	     -2.29569456	      8.23238841	      0.09543403	      1.31977309	     -0.09424190	     24.11104774	     -4.28639140	     -5.76076867	     26.11937526	     -2.60298793	    -21.88788719	      0.00000000	     23.18379604	     -1.23387424	      3.85239921	     19.64255634	     -2.86723444	    -16.26082371	      0.00000000	      2.91789445	      0.68989229	      4.77656853	     -0.08709662	    -65.90449754	    -26.95546155	    105.12385035	     87.99990464	     20.46564207	    -65.62670351	      6.10796064	    112.02385333	     78.28507441
      3.75000000	    -24.17205787	     -2.04698236	      8.30953442	      0.12160283	      1.33619572	     -0.09895101	     23.41164849	     -5.38975003	     -6.62150925	     25.31461918	     -9.22974574	    -19.64968884	      0.00000000	     20.84931722	     -1.77953506	      2.24412655	     17.14367218	     -8.21901410	    -14.07046115	      0.00000000	      4.12665575	      0.51277781	      4.99077458	     -9.75133707	    -65.22632541	    -34.40263701	    106.06718820	     87.59534745	     11.16550736	    -67.43260978	     -0.98221039	    114.07571525	     76.92390543
      3.76666670	    -23.85999980	     -2.02613939	      8.11918760	      0.13622640	      1.35308495	     -0.09770201	     23.57354330	     -6.17049231	     -7.27639878	     26.45726428	    -15.93977596	    -19.68021533	      0.00000000	     19.51849559	     -2.53600978	      1.23078215	     16.54005189	    -12.07178423	    -11.38314958	      0.00000000	      5.14045796	      0.41676610	      5.16474710	    -14.17964547	    -64.69225552	    -36.03631853	    105.14361806	     87.40408763	      7.27818255	    -68.83425765	     -2.99715967	    113.58286711	     76.46876895
      3.78333330	    -23.24641334	     -1.85324707	      8.07088513	      0.15342155	      1.38685220	     -0.09803568	     23.85406595	     -7.00433455	     -7.92593531	     28.47288426	    -19.51125094	    -20.91934336	      0.00000000	     19.06426716	     -3.15109732	      0.45553058	     18.52942610	    -14.10371715	    -10.94100666	      0.00000000	      4.45589227	      0.28374229	      5.55366879	    -17.24067303	    -62.63268976	    -37.63904881	    105.24356146	     87.32323655	      2.31678895	    -68.78916179	     -6.34609694	    113.00395060	     75.67184414
      3.80000000	    -22.32152339	     -1.75053151	      7.98259009	      0.16647037	      1.39758802	     -0.10019297	     25.49058943	     -7.73407489	     -7.30167607	     33.29858653	    -21.05423852	    -24.93140100	      0.00000000	     20.03273586	     -3.90822595	      0.07482994	     24.36399406	    -15.87427300	    -12.40729639	      0.00000000	      3.65843276	      0.30693896	      5.90918355	    -16.83672036	    -62.09546620	    -35.09957397	    103.66460732	     87.29160626	      1.67413317	    -68.56787384	     -6.15082419	    111.22805198	     75.53446768
      3.81666670	    -21.15401326	     -1.65181121	      7.81054367	      0.18081667	      1.42322473	     -0.09866175	     26.74649622	     -8.07447138	     -6.56114427	     37.57597233	    -23.57113029	    -29.11772096	      0.00000000	     21.63744113	     -4.66928311	      0.23930250	     32.25755908	    -17.33903249	    -13.20808306	      0.00000000	      2.32283315	      0.21357875	      5.93267296	    -14.50035774	    -60.43431518	    -30.66483803	    101.24380706	     87.32538945	      2.14361913	    -67.49907220	     -5.08959136	    108.55822057	     75.35746427
      3.83333330	    -19.87003278	     -1.65867005	      7.69469407	      0.19509010	      1.43747933	     -0.09816835	     28.44462891	     -8.04990805	     -5.92776637	     42.69370941	    -23.25354819	    -33.21923085	      0.00000000	     23.46683202	     -5.47748878	      0.01646448	     40.70468266	    -17.95414726	    -14.10885842	      0.00000000	      1.03172415	      0.31965513	      5.55951588	     -8.95502810	    -59.48549448	    -22.75276499	     96.99939797	     87.38319600	      3.55690300	    -66.67008270	     -2.53620334	    104.86291626	     75.10471215
      3.85000000	    -18.86418577	     -1.69664233	      7.43916224	      0.20653222	      1.43952466	     -0.10064924	     30.33104306	     -7.81142637	     -4.97220845	     47.00400899	    -20.68467259	    -34.29374776	      0.00000000	     25.86511363	     -5.85982643	      0.15777474	     49.56209137	    -17.40413394	    -14.78138827	      0.00000000	     -0.92180763	      0.39994100	      5.69785406	     -5.64602987	    -58.06052046	    -19.72851769	     94.02422872	     87.27489532	      5.32733647	    -65.00186013	     -2.61598549	    102.12030013	     74.82153534
      3.86666670	    -18.15557644	     -1.65925388	      7.48187628	      0.22167149	      1.44169922	     -0.10250332	     32.19228525	     -7.74073290	     -4.71920747	     50.45076560	    -17.28125240	    -35.00000000	      0.00000000	     28.16487692	     -6.02128069	      0.14690905	     57.05727928	    -16.31003033	    -15.33566712	      0.00000000	     -1.38062857	      0.22058736	      4.44184440	      2.46398706	    -57.46702010	     -8.52932626	     88.18737975	     87.12689909	      7.92480597	    -65.35922066	      1.50241101	     97.97717225	     74.36741770
      3.88333330	    -18.27420179	     -1.74278355	      7.39568731	      0.23127816	      1.44577770	     -0.10459806	     34.72552268	     -7.69521029	     -4.62277535	     52.56712861	    -15.68899566	    -34.91052420	      0.00000000	     31.25193201	     -5.88378139	      0.31522615	     62.68982264	    -13.85571774	    -14.95901857	      0.00000000	     -2.00192577	      0.32627094	      3.45996856	      8.88641703	    -55.90204924	     -1.04804400	     83.33176309	     86.77750576	      9.65827890	    -64.00584338	      2.85415819	     93.82475589	     73.76075693
